<svg width="193" height="148" viewBox="0 0 193 148" fill="none" xmlns="http://www.w3.org/2000/svg">
<path d="M156.925 74.4041C156.925 66.3801 155.345 58.4347 152.274 51.0215C149.204 43.6083 144.703 36.8726 139.029 31.1987C133.355 25.5249 126.62 21.0242 119.206 17.9536C111.793 14.8829 103.848 13.3025 95.8238 13.3025C87.7998 13.3025 79.8544 14.8829 72.4412 17.9536C65.028 21.0242 58.2922 25.5249 52.6184 31.1987C46.9446 36.8726 42.4439 43.6084 39.3733 51.0215C36.3026 58.4347 34.7222 66.3802 34.7222 74.4041" stroke="#606060" stroke-width="9" stroke-linecap="round"/>
<mask id="path-2-inside-1" fill="white">
<rect x="81.1685" width="29.3107" height="23.8995" rx="4.50935"/>
</mask>
<rect x="81.1685" width="29.3107" height="23.8995" rx="4.50935" stroke="#606060" stroke-width="16.2336" mask="url(#path-2-inside-1)"/>
<line x1="10.8223" y1="9.67529" x2="180.374" y2="9.67529" stroke="#606060" stroke-width="5"/>
<circle cx="186.236" cy="9.46959" r="5.26402" stroke="#606060" stroke-width="3"/>
<circle cx="95.598" cy="105.068" r="6.76402" fill="#606060"/>
<circle cx="6.76402" cy="9.46959" r="5.26402" stroke="#606060" stroke-width="3"/>
<path d="M84.1824 54.9349C86.8748 50.6033 89.3998 46.5769 91.4861 43.2648V91.2562C83.1728 94.727 79.6137 101.37 80.5841 107.851C81.5924 114.585 87.4717 120.243 95.6136 120.243C103.755 120.243 109.635 114.585 110.643 107.851C111.614 101.37 108.054 94.727 99.7411 91.2562V43.2648C101.827 46.5769 104.352 50.6033 107.045 54.9349C114.04 66.1885 122.114 79.4236 126.577 87.5701C131.086 95.799 134.045 102.728 134.488 108C134.703 110.556 134.303 112.492 133.408 113.971C132.524 115.43 130.952 116.785 128.171 117.81C124.997 118.979 122.488 119.786 120.471 120.434L120.433 120.446L120.288 120.492C118.4 121.099 116.752 121.628 115.495 122.217C114.132 122.856 112.804 123.751 111.976 125.324C111.216 126.766 111.102 128.38 111.102 129.869V144.005H95.6136H80.1251V129.869C80.1251 128.38 80.0112 126.766 79.2516 125.324C78.4233 123.751 77.0949 122.856 75.7318 122.217C74.4753 121.628 72.8277 121.099 70.9395 120.493L70.7946 120.446L70.7563 120.434C68.7397 119.786 66.2299 118.979 63.0559 117.81C60.2747 116.785 58.703 115.43 57.8194 113.971C56.9242 112.492 56.5245 110.556 56.7394 108C57.1827 102.728 60.1408 95.799 64.6498 87.5701C69.1136 79.4236 77.1877 66.1885 84.1824 54.9349Z" stroke="#606060" stroke-width="6"/>
</svg>
