<svg width="150" height="150" viewBox="0 0 150 150" fill="none" xmlns="http://www.w3.org/2000/svg">
<circle cx="75" cy="75" r="70.5" stroke="#606060" stroke-width="9"/>
<path d="M108.531 92.2656C108.531 98.5865 106.219 104.021 101.594 108.569C96.9688 113.04 90.301 115.815 81.5906 116.894V129.844H70.0281V117.241C64.324 116.932 58.8896 115.93 53.725 114.234C48.5604 112.539 44.3979 110.457 41.2375 107.991L47.5969 93.8844C50.526 96.0427 53.9563 97.8542 57.8875 99.3187C61.8188 100.783 65.8656 101.708 70.0281 102.094V82.7844C64.5552 81.474 59.9302 80.0094 56.1531 78.3906C52.376 76.7719 49.2156 74.4208 46.6719 71.3375C44.1281 68.1771 42.8563 64.0146 42.8563 58.85C42.8563 52.4521 45.1688 46.9792 49.7938 42.4312C54.4958 37.8062 61.2406 34.9927 70.0281 33.9906V21.1562H81.5906V33.7594C91.0719 34.5302 98.8958 36.8812 105.063 40.8125L99.2813 55.0344C93.5 51.7198 87.6031 49.7156 81.5906 49.0219V68.6781C86.9865 69.9115 91.5344 71.3375 95.2344 72.9562C99.0115 74.4979 102.172 76.849 104.716 80.0094C107.259 83.0927 108.531 87.1781 108.531 92.2656ZM61.4719 57.925C61.4719 59.8521 62.2042 61.4323 63.6688 62.6656C65.1333 63.899 67.2531 64.9396 70.0281 65.7875V49.3687C67.099 50.0625 64.9406 51.1802 63.5531 52.7219C62.1656 54.1865 61.4719 55.9208 61.4719 57.925ZM81.5906 101.631C84.3656 101.015 86.4469 100.012 87.8344 98.625C89.2219 97.2375 89.9156 95.5802 89.9156 93.6531C89.9156 91.726 89.1833 90.1458 87.7188 88.9125C86.3313 87.6792 84.2885 86.6 81.5906 85.675V101.631Z" fill="#606060"/>
</svg>
