<svg width="150" height="150" viewBox="0 0 150 150" fill="none" xmlns="http://www.w3.org/2000/svg">
<circle cx="75" cy="75" r="70.5" stroke="#606060" stroke-width="9"/>
<path d="M49.5244 78.3529C43.6993 78.3529 38.9398 76.5059 35.2458 72.812C31.5519 69.118 29.7049 64.0388 29.7049 57.5744C29.7049 53.2411 30.5574 49.5116 32.2623 46.386C33.9672 43.2603 36.3114 40.8806 39.295 39.2467C42.3496 37.6128 45.7594 36.7959 49.5244 36.7959C53.2894 36.7959 56.6637 37.6128 59.6472 39.2467C62.7019 40.8806 65.0816 43.2603 66.7865 46.386C68.4914 49.5116 69.3439 53.2411 69.3439 57.5744C69.3439 64.0388 67.4969 69.118 63.8029 72.812C60.109 76.5059 55.3495 78.3529 49.5244 78.3529ZM93.3191 37.8615H111.327L60.3931 112.451H42.3851L93.3191 37.8615ZM49.5244 66.8448C50.8741 66.8448 51.9752 66.1344 52.8276 64.7137C53.7511 63.2219 54.2129 60.8421 54.2129 57.5744C54.2129 54.3067 53.7511 51.9624 52.8276 50.5417C51.9752 49.0499 50.8741 48.304 49.5244 48.304C48.1747 48.304 47.0381 49.0499 46.1146 50.5417C45.2621 51.9624 44.8359 54.3067 44.8359 57.5744C44.8359 60.8421 45.2621 63.2219 46.1146 64.7137C47.0381 66.1344 48.1747 66.8448 49.5244 66.8448ZM104.188 113.516C98.3627 113.516 93.6032 111.67 89.9093 107.976C86.2153 104.282 84.3683 99.2024 84.3683 92.738C84.3683 88.4047 85.2208 84.6752 86.9257 81.5496C88.6306 78.4239 90.9748 76.0442 93.9584 74.4103C97.013 72.7764 100.423 71.9595 104.188 71.9595C107.953 71.9595 111.327 72.7764 114.311 74.4103C117.365 76.0442 119.745 78.4239 121.45 81.5496C123.155 84.6752 124.007 88.4047 124.007 92.738C124.007 99.2024 122.16 104.282 118.466 107.976C114.772 111.67 110.013 113.516 104.188 113.516ZM104.188 102.008C105.538 102.008 106.639 101.298 107.491 99.8773C108.415 98.3855 108.876 96.0057 108.876 92.738C108.876 89.4703 108.415 87.126 107.491 85.7053C106.639 84.2135 105.538 83.4676 104.188 83.4676C102.838 83.4676 101.701 84.2135 100.778 85.7053C99.9256 87.126 99.4993 89.4703 99.4993 92.738C99.4993 96.0057 99.9256 98.3855 100.778 99.8773C101.701 101.298 102.838 102.008 104.188 102.008Z" fill="#606060"/>
</svg>
