<svg width="805" height="805" viewBox="0 0 805 805" fill="none" xmlns="http://www.w3.org/2000/svg">
<circle cx="402.5" cy="402.5" r="378.35" stroke="white" stroke-opacity="0.01" stroke-width="48.3"/>
<path d="M582.451 494.092C582.451 528.014 570.041 557.178 545.22 581.585C520.399 605.579 484.616 620.471 437.87 626.263V695.761H375.818V628.125C345.206 626.47 316.041 621.092 288.324 611.991C260.608 602.89 238.269 591.721 221.308 578.483L255.437 502.779C271.157 514.362 289.565 524.084 310.663 531.944C331.761 539.804 353.479 544.768 375.818 546.836V443.209C346.447 436.177 321.626 428.317 301.355 419.63C281.085 410.942 264.124 398.325 250.473 381.778C236.821 364.817 229.995 342.478 229.995 314.762C229.995 280.426 242.406 251.055 267.227 226.648C292.461 201.827 328.658 186.727 375.818 181.35V112.472H437.87V180.109C488.753 184.245 530.741 196.863 563.836 217.96L532.81 294.284C501.784 276.496 470.137 265.74 437.87 262.017V367.506C466.828 374.125 491.235 381.778 511.091 390.465C531.362 398.739 548.323 411.356 561.974 428.317C575.626 444.864 582.451 466.789 582.451 494.092ZM329.899 309.797C329.899 320.139 333.829 328.62 341.689 335.239C349.549 341.858 360.925 347.442 375.818 351.993V263.879C360.098 267.602 348.515 273.6 341.069 281.874C333.622 289.734 329.899 299.042 329.899 309.797ZM437.87 544.354C452.762 541.045 463.932 535.667 471.378 528.221C478.824 520.774 482.547 511.88 482.547 501.538C482.547 491.196 478.617 482.716 470.758 476.097C463.311 469.478 452.349 463.687 437.87 458.722V544.354Z" fill="white" fill-opacity="0.01"/>
</svg>
