<svg width="157" height="157" viewBox="0 0 157 157" fill="none" xmlns="http://www.w3.org/2000/svg">
<path fill-rule="evenodd" clip-rule="evenodd" d="M78.5 0C35.3429 0 0.357178 34.9858 0.357178 78.1429C0.357178 121.3 35.3429 156.286 78.5 156.286C121.657 156.286 156.643 121.3 156.643 78.1429C156.643 34.9858 121.657 0 78.5 0ZM113.791 45.8473V26.3856C109.81 25.7959 104.208 25.501 96.9831 25.501C88.4809 25.501 81.6742 28.0197 76.563 33.0571C71.4519 38.0946 68.8963 45.1839 68.8963 54.325V70.3957H50.098V92.2164H68.8963V148.169H91.4542V92.2164H110.179L113.054 70.3957H91.4542V56.4628C91.4542 52.9243 92.1914 50.2705 93.6658 48.5012C95.1402 46.732 97.9906 45.8473 102.217 45.8473H113.791Z" fill="white"/>
</svg>
