<svg width="157" height="157" viewBox="0 0 157 157" fill="none" xmlns="http://www.w3.org/2000/svg">
<path fill-rule="evenodd" clip-rule="evenodd" d="M0.714355 78.1429C0.714355 34.9858 35.7001 0 78.8572 0C122.014 0 157 34.9858 157 78.1429C157 121.3 122.014 156.286 78.8572 156.286C35.7001 156.286 0.714355 121.3 0.714355 78.1429ZM36.682 47.5742L78.8571 77.0968L121.032 47.5742C120.248 46.0234 118.635 44.9474 116.795 44.9474H40.9188C39.079 44.9474 37.4663 46.0234 36.682 47.5742ZM131.022 49.608C130.978 41.8097 124.604 35.4628 116.795 35.4628H40.9188C33.1107 35.4628 26.7369 41.8091 26.6922 49.607C26.6914 49.6539 26.6913 49.7008 26.6919 49.7476V106.597C26.6919 114.433 33.0832 120.824 40.9188 120.824H116.795C124.631 120.824 131.022 114.433 131.022 106.597V49.7468C131.023 49.7006 131.023 49.6543 131.022 49.608ZM121.538 58.7978V106.597C121.538 109.195 119.393 111.339 116.795 111.339H40.9188C38.3214 111.339 36.1765 109.195 36.1765 106.597V58.7978L76.1376 86.7705C77.7704 87.9135 79.9438 87.9135 81.5766 86.7705L121.538 58.7978Z" fill="white"/>
</svg>
