<svg width="209" height="139" viewBox="0 0 209 139" fill="none" xmlns="http://www.w3.org/2000/svg">
<path d="M52.1938 63.0913C55.1991 63.5813 57.5021 64.7083 59.1028 66.4723C60.7034 68.2036 61.5038 70.3596 61.5038 72.9403C61.5038 74.9329 60.9811 76.7786 59.9358 78.4773C58.8904 80.1433 57.2898 81.4826 55.1338 82.4953C53.0104 83.5079 50.3971 84.0143 47.2938 84.0143C44.8764 84.0143 42.4918 83.7039 40.1398 83.0833C37.8204 82.4299 35.8441 81.5153 34.2108 80.3393L37.2978 74.2633C38.6044 75.2433 40.1071 76.0109 41.8058 76.5663C43.5371 77.0889 45.3011 77.3503 47.0978 77.3503C49.0904 77.3503 50.6584 76.9746 51.8018 76.2233C52.9451 75.4393 53.5168 74.3449 53.5168 72.9403C53.5168 70.1309 51.3771 68.7263 47.0978 68.7263H43.4718V63.4833L50.5278 55.4963H35.9258V49.1263H59.9358V54.2713L52.1938 63.0913ZM67.3248 49.1263H82.9068C86.6308 49.1263 89.9138 49.8449 92.7558 51.2823C95.6305 52.6869 97.8518 54.6796 99.4198 57.2603C101.02 59.8409 101.821 62.8463 101.821 66.2763C101.821 69.7063 101.02 72.7116 99.4198 75.2923C97.8518 77.8729 95.6305 79.8819 92.7558 81.3193C89.9138 82.7239 86.6308 83.4263 82.9068 83.4263H67.3248V49.1263ZM82.5148 76.9093C85.9448 76.9093 88.6725 75.9619 90.6978 74.0673C92.7558 72.1399 93.7848 69.5429 93.7848 66.2763C93.7848 63.0096 92.7558 60.4289 90.6978 58.5343C88.6725 56.6069 85.9448 55.6433 82.5148 55.6433H75.2628V76.9093H82.5148Z" fill="#606060"/>
<rect x="9" y="25" width="191" height="111" rx="8" stroke="#606060" stroke-width="6"/>
<mask id="path-3-inside-1" fill="white">
<rect x="174" y="41.1807" width="16" height="84.3934" rx="2"/>
</mask>
<rect x="174" y="41.1807" width="16" height="84.3934" rx="2" fill="white" stroke="#606060" stroke-width="6" mask="url(#path-3-inside-1)"/>
<path d="M122 36.3853V50.7705" stroke="#606060" stroke-linecap="round"/>
<path d="M122 56.5244V70.9097" stroke="#606060" stroke-linecap="round"/>
<path d="M122 76.6641V91.0493" stroke="#606060" stroke-linecap="round"/>
<path d="M122 110.229V124.615" stroke="#606060" stroke-linecap="round"/>
<path d="M22 100.64H31" stroke="#606060" stroke-linecap="round"/>
<path d="M37 100.64H46" stroke="#606060" stroke-linecap="round"/>
<path d="M52 100.64H61" stroke="#606060" stroke-linecap="round"/>
<path d="M67 100.64H76" stroke="#606060" stroke-linecap="round"/>
<path d="M82 100.64H91" stroke="#606060" stroke-linecap="round"/>
<path d="M97 100.64H106" stroke="#606060" stroke-linecap="round"/>
<path d="M112 100.64H121" stroke="#606060" stroke-linecap="round"/>
<path d="M127 100.64H136" stroke="#606060" stroke-linecap="round"/>
<path d="M142 100.64H151" stroke="#606060" stroke-linecap="round"/>
<path d="M157 100.64H166" stroke="#606060" stroke-linecap="round"/>
</svg>
