<svg width="152" height="142" viewBox="0 0 152 142" fill="none" xmlns="http://www.w3.org/2000/svg">
<path d="M76 118V139" stroke="#606060" stroke-width="5" stroke-linecap="round"/>
<path d="M106 129V139" stroke="#606060" stroke-width="3" stroke-linecap="round"/>
<path d="M46 129V139" stroke="#606060" stroke-width="3" stroke-linecap="round"/>
<path d="M61 124V139" stroke="#606060" stroke-linecap="round"/>
<path d="M31 132V139" stroke="#606060" stroke-linecap="round"/>
<path d="M16 134V139" stroke="#606060" stroke-linecap="round"/>
<path d="M121 132V139" stroke="#606060" stroke-linecap="round"/>
<path d="M136 134V139" stroke="#606060" stroke-linecap="round"/>
<path d="M91 124V139" stroke="#606060" stroke-linecap="round"/>
<path d="M121.783 73.7532C122 73.6305 122.275 73.7068 122.398 73.9235L132.241 91.312C132.364 91.5287 132.287 91.8039 132.071 91.9266L131.217 92.41C131 92.5327 130.725 92.4565 130.602 92.2397L120.759 74.8512C120.636 74.6345 120.712 74.3593 120.929 74.2366L121.783 73.7532Z" stroke="#606060" stroke-width="8.11682"/>
<path d="M29.9249 73.7532C29.7082 73.6305 29.433 73.7068 29.3103 73.9235L19.467 91.312C19.3443 91.5287 19.4205 91.8039 19.6372 91.9266L20.4912 92.41C20.7079 92.5327 20.9831 92.4565 21.1058 92.2397L30.9492 74.8512C31.0719 74.6345 30.9956 74.3593 30.7789 74.2366L29.9249 73.7532Z" stroke="#606060" stroke-width="8.11682"/>
<path d="M94.5707 36.5071L147.473 133.814L115.127 110.056L78.9892 50.7255L77.7081 51.5058L78.9892 50.7255C77.6254 48.4864 74.3746 48.4864 73.0108 50.7255L74.2919 51.5058L73.0108 50.7255L36.8731 110.056L4.5268 133.814L57.4293 36.5071C59.4421 32.8049 63.3186 30.5 67.5326 30.5H76H84.4674C88.6814 30.5 92.558 32.8049 94.5707 36.5071Z" stroke="#606060" stroke-width="3"/>
<rect x="69.5" y="1.5" width="13" height="37" rx="2.5" fill="white" stroke="#606060" stroke-width="3"/>
</svg>
