<svg width="193" height="129" viewBox="0 0 193 129" fill="none" xmlns="http://www.w3.org/2000/svg">
<rect x="102.5" y="101.5" width="88" height="25" rx="2.5" stroke="#606060" stroke-width="5"/>
<rect x="70.5" y="66.5" width="88" height="25" rx="2.5" stroke="#606060" stroke-width="5"/>
<circle cx="26" cy="61" r="22.56" stroke="#606060" stroke-width="2.88"/>
<path d="M36.7299 66.685C36.7299 68.7077 35.9899 70.4467 34.5099 71.902C33.0299 73.3327 30.8962 74.2207 28.1089 74.566V78.71H24.4089V74.677C22.5836 74.5784 20.8446 74.2577 19.1919 73.715C17.5392 73.1724 16.2072 72.5064 15.1959 71.717L17.2309 67.203C18.1682 67.8937 19.2659 68.4734 20.5239 68.942C21.7819 69.4107 23.0769 69.7067 24.4089 69.83V63.651C22.6576 63.2317 21.1776 62.763 19.9689 62.245C18.7602 61.727 17.7489 60.9747 16.9349 59.988C16.1209 58.9767 15.7139 57.6447 15.7139 55.992C15.7139 53.9447 16.4539 52.1934 17.9339 50.738C19.4386 49.258 21.5969 48.3577 24.4089 48.037V43.93H28.1089V47.963C31.1429 48.2097 33.6466 48.962 35.6199 50.22L33.7699 54.771C31.9199 53.7104 30.0329 53.069 28.1089 52.847V59.137C29.8356 59.5317 31.2909 59.988 32.4749 60.506C33.6836 60.9994 34.6949 61.7517 35.5089 62.763C36.3229 63.7497 36.7299 65.057 36.7299 66.685ZM21.6709 55.696C21.6709 56.3127 21.9052 56.8184 22.3739 57.213C22.8426 57.6077 23.5209 57.9407 24.4089 58.212V52.958C23.4716 53.18 22.7809 53.5377 22.3369 54.031C21.8929 54.4997 21.6709 55.0547 21.6709 55.696ZM28.1089 69.682C28.9969 69.4847 29.6629 69.164 30.1069 68.72C30.5509 68.276 30.7729 67.7457 30.7729 67.129C30.7729 66.5124 30.5386 66.0067 30.0699 65.612C29.6259 65.2174 28.9722 64.872 28.1089 64.576V69.682Z" fill="#606060"/>
<rect x="2.5" y="101.5" width="88" height="25" rx="2.5" stroke="#606060" stroke-width="5"/>
<path d="M156.722 45L138.5 53.6772L120.278 45H127H130.378L129.979 41.6454L125.378 3H138.5H151.622L147.021 41.6454L146.622 45H150H156.722Z" fill="white" stroke="#606060" stroke-width="6"/>
</svg>
