<svg width="212" height="139" viewBox="0 0 212 139" fill="none" xmlns="http://www.w3.org/2000/svg">
<path d="M65.1504 69.6253V79.0003C65.1539 79.8706 64.9756 80.7321 64.627 81.5295C64.2783 82.3269 63.7669 83.0428 63.1256 83.6311C62.4843 84.2195 61.7272 84.6674 60.9027 84.9463C60.0783 85.2251 59.2047 85.3286 58.3379 85.2503C48.7217 84.2054 39.4847 80.9195 31.3691 75.6566C23.8186 70.8586 17.417 64.4571 12.6191 56.9066C7.3378 48.7541 4.05112 39.4722 3.02536 29.8128C2.94727 28.9486 3.04997 28.0777 3.32693 27.2554C3.60388 26.4331 4.04902 25.6775 4.63401 25.0366C5.21899 24.3958 5.93101 23.8838 6.72471 23.5332C7.51842 23.1826 8.37643 23.0011 9.24412 23.0003H18.6191C20.1357 22.9854 21.606 23.5224 22.7559 24.5113C23.9058 25.5003 24.6569 26.8736 24.8691 28.3753C25.2648 31.3755 25.9986 34.3213 27.0566 37.1566C27.4771 38.2751 27.5681 39.4907 27.3188 40.6593C27.0696 41.8279 26.4906 42.9006 25.6504 43.7503L21.6816 47.7191C26.1302 55.5426 32.608 62.0204 40.4316 66.4691L44.4004 62.5003C45.25 61.6601 46.3227 61.0811 47.4914 60.8318C48.66 60.5826 49.8756 60.6736 50.9941 61.0941C53.8293 62.152 56.7752 62.8859 59.7754 63.2816C61.2934 63.4957 62.6798 64.2603 63.6708 65.43C64.6618 66.5996 65.1884 68.0927 65.1504 69.6253Z" stroke="#606060" stroke-width="6" stroke-linecap="round" stroke-linejoin="round"/>
<rect x="80.5" y="54.5" width="129" height="55" rx="8.5" stroke="#606060" stroke-width="5"/>
<rect x="80.5" y="28.5" width="129" height="17" rx="8.5" stroke="#606060" stroke-width="5"/>
<rect x="80.5" y="2.5" width="129" height="17" rx="8.5" stroke="#606060" stroke-width="5"/>
<line x1="99.5" y1="11.5" x2="161.5" y2="11.5" stroke="#606060" stroke-width="3" stroke-linecap="round"/>
<line x1="99.5" y1="37.5" x2="161.5" y2="37.5" stroke="#606060" stroke-width="3" stroke-linecap="round"/>
<line x1="99.5" y1="70.5" x2="188.5" y2="70.5" stroke="#606060" stroke-width="3" stroke-linecap="round"/>
<line x1="99.5" y1="80.5" x2="188.5" y2="80.5" stroke="#606060" stroke-width="3" stroke-linecap="round"/>
<line x1="99.5" y1="90.5" x2="173.5" y2="90.5" stroke="#606060" stroke-width="3" stroke-linecap="round"/>
<rect x="90.5" y="118.5" width="71" height="19" rx="9.5" fill="white" stroke="#606060" stroke-width="3"/>
<path d="M112.964 132.084C112.444 132.084 111.936 132.016 111.44 131.88C110.944 131.744 110.548 131.572 110.252 131.364L110.828 130.224C111.116 130.416 111.46 130.572 111.86 130.692C112.268 130.804 112.668 130.86 113.06 130.86C113.956 130.86 114.404 130.624 114.404 130.152C114.404 129.928 114.288 129.772 114.056 129.684C113.832 129.596 113.468 129.512 112.964 129.432C112.436 129.352 112.004 129.26 111.668 129.156C111.34 129.052 111.052 128.872 110.804 128.616C110.564 128.352 110.444 127.988 110.444 127.524C110.444 126.916 110.696 126.432 111.2 126.072C111.712 125.704 112.4 125.52 113.264 125.52C113.704 125.52 114.144 125.572 114.584 125.676C115.024 125.772 115.384 125.904 115.664 126.072L115.088 127.212C114.544 126.892 113.932 126.732 113.252 126.732C112.812 126.732 112.476 126.8 112.244 126.936C112.02 127.064 111.908 127.236 111.908 127.452C111.908 127.692 112.028 127.864 112.268 127.968C112.516 128.064 112.896 128.156 113.408 128.244C113.92 128.324 114.34 128.416 114.668 128.52C114.996 128.624 115.276 128.8 115.508 129.048C115.748 129.296 115.868 129.648 115.868 130.104C115.868 130.704 115.608 131.184 115.088 131.544C114.568 131.904 113.86 132.084 112.964 132.084ZM123.184 128.832C123.184 128.936 123.176 129.084 123.16 129.276H118.132C118.22 129.748 118.448 130.124 118.816 130.404C119.192 130.676 119.656 130.812 120.208 130.812C120.912 130.812 121.492 130.58 121.948 130.116L122.752 131.04C122.464 131.384 122.1 131.644 121.66 131.82C121.22 131.996 120.724 132.084 120.172 132.084C119.468 132.084 118.848 131.944 118.312 131.664C117.776 131.384 117.36 130.996 117.064 130.5C116.776 129.996 116.632 129.428 116.632 128.796C116.632 128.172 116.772 127.612 117.052 127.116C117.34 126.612 117.736 126.22 118.24 125.94C118.744 125.66 119.312 125.52 119.944 125.52C120.568 125.52 121.124 125.66 121.612 125.94C122.108 126.212 122.492 126.6 122.764 127.104C123.044 127.6 123.184 128.176 123.184 128.832ZM119.944 126.72C119.464 126.72 119.056 126.864 118.72 127.152C118.392 127.432 118.192 127.808 118.12 128.28H121.756C121.692 127.816 121.496 127.44 121.168 127.152C120.84 126.864 120.432 126.72 119.944 126.72ZM128.261 125.52C129.069 125.52 129.717 125.756 130.205 126.228C130.693 126.7 130.937 127.4 130.937 128.328V132H129.437V128.52C129.437 127.96 129.305 127.54 129.041 127.26C128.777 126.972 128.401 126.828 127.913 126.828C127.361 126.828 126.925 126.996 126.605 127.332C126.285 127.66 126.125 128.136 126.125 128.76V132H124.625V125.592H126.053V126.42C126.301 126.124 126.613 125.9 126.989 125.748C127.365 125.596 127.789 125.52 128.261 125.52ZM139.174 123.096V132H137.734V131.172C137.486 131.476 137.178 131.704 136.81 131.856C136.45 132.008 136.05 132.084 135.61 132.084C134.994 132.084 134.438 131.948 133.942 131.676C133.454 131.404 133.07 131.02 132.79 130.524C132.51 130.02 132.37 129.444 132.37 128.796C132.37 128.148 132.51 127.576 132.79 127.08C133.07 126.584 133.454 126.2 133.942 125.928C134.438 125.656 134.994 125.52 135.61 125.52C136.034 125.52 136.422 125.592 136.774 125.736C137.126 125.88 137.426 126.096 137.674 126.384V123.096H139.174ZM135.79 130.8C136.15 130.8 136.474 130.72 136.762 130.56C137.05 130.392 137.278 130.156 137.446 129.852C137.614 129.548 137.698 129.196 137.698 128.796C137.698 128.396 137.614 128.044 137.446 127.74C137.278 127.436 137.05 127.204 136.762 127.044C136.474 126.876 136.15 126.792 135.79 126.792C135.43 126.792 135.106 126.876 134.818 127.044C134.53 127.204 134.302 127.436 134.134 127.74C133.966 128.044 133.882 128.396 133.882 128.796C133.882 129.196 133.966 129.548 134.134 129.852C134.302 130.156 134.53 130.392 134.818 130.56C135.106 130.72 135.43 130.8 135.79 130.8Z" fill="#606060"/>
</svg>
