<svg width="1474" height="776" viewBox="0 0 1474 776" fill="none" xmlns="http://www.w3.org/2000/svg">
<g filter="url(#filter0_d)">
<path fill-rule="evenodd" clip-rule="evenodd" d="M3 38C3 18.1177 19.1178 2 39 2H1435C1454.88 2 1471 18.1178 1471 38V736C1471 755.882 1454.88 772 1435 772H39C19.1177 772 3 755.882 3 736V38ZM226.596 202.092H196.748V259H193.468V144.2H196.748V198.976H226.432L271.204 144.2H275.304L229.384 200.452L278.748 259H274.648L226.596 202.092ZM329.477 259.492C321.714 259.492 314.662 257.688 308.321 254.08C302.089 250.363 297.169 245.224 293.561 238.664C290.062 232.104 288.313 224.724 288.313 216.524C288.313 208.324 290.062 200.999 293.561 194.548C297.169 187.988 302.089 182.904 308.321 179.296C314.662 175.579 321.714 173.72 329.477 173.72C337.239 173.72 344.237 175.579 350.469 179.296C356.81 182.904 361.73 187.988 365.229 194.548C368.837 200.999 370.641 208.324 370.641 216.524C370.641 224.724 368.837 232.104 365.229 238.664C361.73 245.224 356.81 250.363 350.469 254.08C344.237 257.688 337.239 259.492 329.477 259.492ZM329.477 256.376C336.583 256.376 343.034 254.681 348.829 251.292C354.623 247.903 359.161 243.201 362.441 237.188C365.721 231.065 367.361 224.177 367.361 216.524C367.361 208.871 365.721 202.037 362.441 196.024C359.161 189.901 354.623 185.2 348.829 181.92C343.034 178.531 336.583 176.836 329.477 176.836C322.37 176.836 315.919 178.531 310.125 181.92C304.33 185.2 299.793 189.901 296.513 196.024C293.233 202.037 291.593 208.871 291.593 216.524C291.593 224.177 293.233 231.065 296.513 237.188C299.793 243.201 304.33 247.903 310.125 251.292C315.919 254.681 322.37 256.376 329.477 256.376ZM488.877 174.212V259H485.761V180.608L445.417 247.192H443.613L403.433 181.1V259H400.153V174.212H402.941L444.597 243.092L486.089 174.212H488.877ZM598.493 174.212V259H595.213V177.328H530.597V259H527.317V174.212H598.493ZM699.02 174.212V259H695.74V177.328H646.54L645.064 202.584C644.408 214.611 643.478 224.615 642.276 232.596C641.073 240.468 638.996 246.973 636.044 252.112C633.201 257.141 629.156 259.656 623.908 259.656C622.486 259.656 620.682 259.383 618.496 258.836L619.152 255.884C620.901 256.321 622.268 256.54 623.252 256.54C627.953 256.54 631.561 254.08 634.076 249.16C636.59 244.24 638.34 238.063 639.324 230.628C640.308 223.084 641.128 213.517 641.784 201.928L643.26 174.212H699.02ZM807.142 216.524H731.702C731.702 224.177 733.397 231.065 736.786 237.188C740.175 243.201 744.822 247.903 750.726 251.292C756.739 254.681 763.463 256.376 770.898 256.376C776.693 256.376 782.105 255.283 787.134 253.096C792.273 250.8 796.482 247.52 799.762 243.256L802.058 245.552C798.341 250.035 793.749 253.479 788.282 255.884C782.815 258.289 777.021 259.492 770.898 259.492C762.807 259.492 755.537 257.688 749.086 254.08C742.745 250.363 737.715 245.224 733.998 238.664C730.39 232.104 728.586 224.724 728.586 216.524C728.586 208.324 730.281 200.999 733.67 194.548C737.059 187.988 741.706 182.904 747.61 179.296C753.623 175.579 760.347 173.72 767.782 173.72C775.107 173.72 781.777 175.524 787.79 179.132C793.803 182.74 798.505 187.715 801.894 194.056C805.393 200.397 807.142 207.613 807.142 215.704V216.524ZM767.782 176.836C761.222 176.836 755.263 178.421 749.906 181.592C744.549 184.763 740.23 189.136 736.95 194.712C733.779 200.288 732.03 206.52 731.702 213.408H804.026C803.698 206.52 801.894 200.288 798.614 194.712C795.334 189.136 791.015 184.763 785.658 181.592C780.301 178.421 774.342 176.836 767.782 176.836ZM861.209 217.344H838.577V259H835.297V174.212H838.577V214.392H861.209L896.141 174.212H900.077L863.833 215.704L902.701 259H898.765L861.209 217.344ZM954.578 259.492C946.597 259.492 939.435 257.688 933.094 254.08C926.753 250.363 921.778 245.279 918.17 238.828C914.671 232.268 912.922 224.833 912.922 216.524C912.922 208.215 914.671 200.835 918.17 194.384C921.778 187.824 926.753 182.74 933.094 179.132C939.435 175.524 946.597 173.72 954.578 173.72C960.81 173.72 966.55 174.923 971.798 177.328C977.155 179.624 981.583 183.013 985.082 187.496L982.786 189.956C979.615 185.583 975.57 182.303 970.65 180.116C965.73 177.929 960.373 176.836 954.578 176.836C947.253 176.836 940.638 178.531 934.734 181.92C928.939 185.2 924.402 189.901 921.122 196.024C917.842 202.037 916.202 208.871 916.202 216.524C916.202 224.287 917.842 231.175 921.122 237.188C924.402 243.201 928.939 247.903 934.734 251.292C940.638 254.681 947.253 256.376 954.578 256.376C960.373 256.376 965.73 255.283 970.65 253.096C975.57 250.909 979.615 247.629 982.786 243.256L985.082 245.716C981.583 250.199 977.155 253.643 971.798 256.048C966.55 258.344 960.81 259.492 954.578 259.492ZM1011.79 174.212H1015.07V214.72H1078.87V174.212H1082.15V259H1078.87V217.672H1015.07V259H1011.79V174.212ZM1152.68 259.492C1144.92 259.492 1137.86 257.688 1131.52 254.08C1125.29 250.363 1120.37 245.224 1116.76 238.664C1113.27 232.104 1111.52 224.724 1111.52 216.524C1111.52 208.324 1113.27 200.999 1116.76 194.548C1120.37 187.988 1125.29 182.904 1131.52 179.296C1137.86 175.579 1144.92 173.72 1152.68 173.72C1160.44 173.72 1167.44 175.579 1173.67 179.296C1180.01 182.904 1184.93 187.988 1188.43 194.548C1192.04 200.999 1193.84 208.324 1193.84 216.524C1193.84 224.724 1192.04 232.104 1188.43 238.664C1184.93 245.224 1180.01 250.363 1173.67 254.08C1167.44 257.688 1160.44 259.492 1152.68 259.492ZM1152.68 256.376C1159.79 256.376 1166.24 254.681 1172.03 251.292C1177.83 247.903 1182.36 243.201 1185.64 237.188C1188.92 231.065 1190.56 224.177 1190.56 216.524C1190.56 208.871 1188.92 202.037 1185.64 196.024C1182.36 189.901 1177.83 185.2 1172.03 181.92C1166.24 178.531 1159.79 176.836 1152.68 176.836C1145.57 176.836 1139.12 178.531 1133.33 181.92C1127.53 185.2 1123 189.901 1119.72 196.024C1116.44 202.037 1114.8 208.871 1114.8 216.524C1114.8 224.177 1116.44 231.065 1119.72 237.188C1123 243.201 1127.53 247.903 1133.33 251.292C1139.12 254.681 1145.57 256.376 1152.68 256.376ZM1293.06 216.524H1217.62C1217.62 224.177 1219.31 231.065 1222.7 237.188C1226.09 243.201 1230.74 247.903 1236.64 251.292C1242.65 254.681 1249.38 256.376 1256.81 256.376C1262.61 256.376 1268.02 255.283 1273.05 253.096C1278.19 250.8 1282.4 247.52 1285.68 243.256L1287.97 245.552C1284.25 250.035 1279.66 253.479 1274.2 255.884C1268.73 258.289 1262.93 259.492 1256.81 259.492C1248.72 259.492 1241.45 257.688 1235 254.08C1228.66 250.363 1223.63 245.224 1219.91 238.664C1216.3 232.104 1214.5 224.724 1214.5 216.524C1214.5 208.324 1216.19 200.999 1219.58 194.548C1222.97 187.988 1227.62 182.904 1233.52 179.296C1239.54 175.579 1246.26 173.72 1253.7 173.72C1261.02 173.72 1267.69 175.524 1273.7 179.132C1279.72 182.74 1284.42 187.715 1287.81 194.056C1291.31 200.397 1293.06 207.613 1293.06 215.704V216.524ZM1253.7 176.836C1247.14 176.836 1241.18 178.421 1235.82 181.592C1230.46 184.763 1226.14 189.136 1222.86 194.712C1219.69 200.288 1217.94 206.52 1217.62 213.408H1289.94C1289.61 206.52 1287.81 200.288 1284.53 194.712C1281.25 189.136 1276.93 184.763 1271.57 181.592C1266.21 178.421 1260.26 176.836 1253.7 176.836ZM328.2 408H271.7V478H304.9C313.9 478 320.867 476.067 325.8 472.2C330.733 468.333 333.2 462.9 333.2 455.9C333.2 449.233 330.967 444.133 326.5 440.6C322.1 437.067 315.667 435.3 307.2 435.3H287.8V420.9H328.2V408ZM313.5 463.6C311.3 465.2 308.133 466 304 466H287.8V447.2H304C312.533 447.2 316.8 450.267 316.8 456.4C316.8 459.533 315.7 461.933 313.5 463.6ZM394.756 478V424.2H348.756L347.956 445.8C347.756 450.133 347.456 453.633 347.056 456.3C346.656 458.9 345.856 461.067 344.656 462.8C343.523 464.467 341.79 465.3 339.456 465.3C338.99 465.3 338.223 465.233 337.156 465.1L336.356 477.9C339.49 478.7 342.19 479.1 344.456 479.1C348.723 479.1 352.056 477.767 354.456 475.1C356.856 472.433 358.59 468.767 359.656 464.1C360.723 459.433 361.39 453.567 361.656 446.5L362.156 437H379.156V478H394.756ZM449.858 429.4C445.391 425.4 438.991 423.4 430.658 423.4C426.324 423.4 422.091 423.967 417.958 425.1C413.891 426.233 410.391 427.833 407.458 429.9L413.058 440.8C414.991 439.267 417.324 438.067 420.058 437.2C422.858 436.267 425.691 435.8 428.558 435.8C432.691 435.8 435.791 436.733 437.858 438.6C439.924 440.4 440.958 443 440.958 446.4H428.558C420.691 446.4 414.858 447.833 411.058 450.7C407.324 453.567 405.458 457.5 405.458 462.5C405.458 465.633 406.258 468.433 407.858 470.9C409.458 473.367 411.758 475.3 414.758 476.7C417.824 478.1 421.424 478.8 425.558 478.8C433.558 478.8 439.024 476.3 441.958 471.3V478H456.558V447.3C456.558 439.3 454.324 433.333 449.858 429.4ZM436.558 466.5C434.491 467.7 432.124 468.3 429.458 468.3C426.724 468.3 424.558 467.733 422.958 466.6C421.424 465.4 420.658 463.8 420.658 461.8C420.658 457.6 423.858 455.5 430.258 455.5H440.958V461C440.091 463.4 438.624 465.233 436.558 466.5ZM485.609 437H513.209V424.2H470.109V478H485.609V437ZM529.13 475.3C533.664 477.633 538.764 478.8 544.43 478.8C550.097 478.8 555.164 477.633 559.63 475.3C564.097 472.9 567.597 469.6 570.13 465.4C572.664 461.2 573.93 456.433 573.93 451.1C573.93 445.767 572.664 441 570.13 436.8C567.597 432.6 564.097 429.333 559.63 427C555.164 424.6 550.097 423.4 544.43 423.4C538.764 423.4 533.664 424.6 529.13 427C524.664 429.333 521.164 432.6 518.63 436.8C516.097 441 514.83 445.767 514.83 451.1C514.83 456.433 516.097 461.2 518.63 465.4C521.164 469.6 524.664 472.9 529.13 475.3ZM554.23 462C551.697 464.667 548.43 466 544.43 466C540.43 466 537.13 464.667 534.53 462C531.93 459.267 530.63 455.633 530.63 451.1C530.63 446.567 531.93 442.967 534.53 440.3C537.13 437.567 540.43 436.2 544.43 436.2C548.43 436.2 551.697 437.567 554.23 440.3C556.83 442.967 558.13 446.567 558.13 451.1C558.13 455.633 556.83 459.267 554.23 462ZM612.795 481.3L637.095 424.2H622.095L606.895 460.7L591.795 424.2H575.695L598.995 478.4L598.795 478.9C597.729 481.3 596.529 483 595.195 484C593.862 485.067 592.129 485.6 589.995 485.6C588.462 485.6 586.895 485.3 585.295 484.7C583.762 484.1 582.395 483.267 581.195 482.2L575.495 493.3C577.229 494.833 579.462 496.033 582.195 496.9C584.929 497.767 587.695 498.2 590.495 498.2C595.629 498.2 599.995 496.933 603.595 494.4C607.262 491.867 610.329 487.5 612.795 481.3ZM653.256 475.3C657.856 477.633 663.023 478.8 668.756 478.8C674.423 478.8 679.356 477.6 683.556 475.2C687.823 472.8 690.923 469.467 692.856 465.2L680.756 458.6C678.023 463.533 673.99 466 668.656 466C664.59 466 661.223 464.667 658.556 462C655.89 459.333 654.556 455.7 654.556 451.1C654.556 446.5 655.89 442.867 658.556 440.2C661.223 437.533 664.59 436.2 668.656 436.2C673.923 436.2 677.956 438.667 680.756 443.6L692.856 437.1C690.923 432.7 687.823 429.333 683.556 427C679.356 424.6 674.423 423.4 668.756 423.4C663.023 423.4 657.856 424.6 653.256 427C648.723 429.333 645.156 432.6 642.556 436.8C640.023 441 638.756 445.767 638.756 451.1C638.756 456.433 640.023 461.2 642.556 465.4C645.156 469.6 648.723 472.9 653.256 475.3ZM729.141 437H747.341V424.2H695.441V437H713.641V478H729.141V437ZM800.956 426.9C796.89 424.567 792.356 423.4 787.356 423.4C779.956 423.4 774.323 425.733 770.456 430.4V424.2H755.556V497.4H771.156V472.3C775.09 476.633 780.49 478.8 787.356 478.8C792.356 478.8 796.89 477.667 800.956 475.4C805.09 473.067 808.323 469.833 810.656 465.7C812.99 461.5 814.156 456.633 814.156 451.1C814.156 445.567 812.99 440.733 810.656 436.6C808.323 432.4 805.09 429.167 800.956 426.9ZM794.456 462C791.923 464.667 788.656 466 784.656 466C780.656 466 777.356 464.667 774.756 462C772.223 459.267 770.956 455.633 770.956 451.1C770.956 446.567 772.223 442.967 774.756 440.3C777.356 437.567 780.656 436.2 784.656 436.2C788.656 436.2 791.923 437.567 794.456 440.3C797.056 442.967 798.356 446.567 798.356 451.1C798.356 455.633 797.056 459.267 794.456 462ZM834.99 475.3C839.523 477.633 844.623 478.8 850.29 478.8C855.957 478.8 861.023 477.633 865.49 475.3C869.956 472.9 873.456 469.6 875.99 465.4C878.523 461.2 879.79 456.433 879.79 451.1C879.79 445.767 878.523 441 875.99 436.8C873.456 432.6 869.956 429.333 865.49 427C861.023 424.6 855.957 423.4 850.29 423.4C844.623 423.4 839.523 424.6 834.99 427C830.523 429.333 827.023 432.6 824.49 436.8C821.956 441 820.69 445.767 820.69 451.1C820.69 456.433 821.956 461.2 824.49 465.4C827.023 469.6 830.523 472.9 834.99 475.3ZM860.09 462C857.557 464.667 854.29 466 850.29 466C846.29 466 842.99 464.667 840.39 462C837.79 459.267 836.49 455.633 836.49 451.1C836.49 446.567 837.79 442.967 840.39 440.3C842.99 437.567 846.29 436.2 850.29 436.2C854.29 436.2 857.557 437.567 860.09 440.3C862.69 442.967 863.99 446.567 863.99 451.1C863.99 455.633 862.69 459.267 860.09 462ZM906.02 424.2H890.52V478H904.92L931.02 446V478H946.52V424.2H932.22L906.02 456.2V424.2ZM899.82 402.9C899.886 413.233 905.786 418.4 917.52 418.4C929.32 418.4 935.253 413.233 935.32 402.9H924.92C924.92 405.233 924.253 407.067 922.92 408.4C921.653 409.667 919.82 410.3 917.42 410.3C915.02 410.3 913.186 409.667 911.92 408.4C910.72 407.067 910.086 405.233 910.02 402.9H899.82ZM971.616 475.3C976.216 477.633 981.382 478.8 987.116 478.8C992.782 478.8 997.716 477.6 1001.92 475.2C1006.18 472.8 1009.28 469.467 1011.22 465.2L999.116 458.6C996.382 463.533 992.349 466 987.016 466C982.949 466 979.582 464.667 976.916 462C974.249 459.333 972.916 455.7 972.916 451.1C972.916 446.5 974.249 442.867 976.916 440.2C979.582 437.533 982.949 436.2 987.016 436.2C992.282 436.2 996.316 438.667 999.116 443.6L1011.22 437.1C1009.28 432.7 1006.18 429.333 1001.92 427C997.716 424.6 992.782 423.4 987.116 423.4C981.382 423.4 976.216 424.6 971.616 427C967.082 429.333 963.516 432.6 960.916 436.8C958.382 441 957.116 445.767 957.116 451.1C957.116 456.433 958.382 461.2 960.916 465.4C963.516 469.6 967.082 472.9 971.616 475.3ZM1047.5 437H1065.7V424.2H1013.8V437H1032V478H1047.5V437ZM1124.62 462.7C1124.62 456.3 1121.45 452.033 1115.12 449.9C1117.65 448.767 1119.58 447.2 1120.92 445.2C1122.32 443.133 1123.02 440.767 1123.02 438.1C1123.02 433.7 1121.12 430.3 1117.32 427.9C1113.52 425.433 1108.25 424.2 1101.52 424.2H1074.02V478H1102.72C1109.98 478 1115.45 476.667 1119.12 474C1122.78 471.333 1124.62 467.567 1124.62 462.7ZM1100.12 446.3H1088.32V434.8H1100.12C1105.58 434.8 1108.32 436.7 1108.32 440.5C1108.32 444.367 1105.58 446.3 1100.12 446.3ZM1110.02 461.5C1110.02 465.433 1107.15 467.4 1101.42 467.4H1088.32V455.5H1101.72C1104.58 455.5 1106.68 456 1108.02 457C1109.35 457.933 1110.02 459.433 1110.02 461.5ZM1146.12 475.3C1150.66 477.633 1155.76 478.8 1161.42 478.8C1167.09 478.8 1172.16 477.633 1176.62 475.3C1181.09 472.9 1184.59 469.6 1187.12 465.4C1189.66 461.2 1190.92 456.433 1190.92 451.1C1190.92 445.767 1189.66 441 1187.12 436.8C1184.59 432.6 1181.09 429.333 1176.62 427C1172.16 424.6 1167.09 423.4 1161.42 423.4C1155.76 423.4 1150.66 424.6 1146.12 427C1141.66 429.333 1138.16 432.6 1135.62 436.8C1133.09 441 1131.82 445.767 1131.82 451.1C1131.82 456.433 1133.09 461.2 1135.62 465.4C1138.16 469.6 1141.66 472.9 1146.12 475.3ZM1171.22 462C1168.69 464.667 1165.42 466 1161.42 466C1157.42 466 1154.12 464.667 1151.52 462C1148.92 459.267 1147.62 455.633 1147.62 451.1C1147.62 446.567 1148.92 442.967 1151.52 440.3C1154.12 437.567 1157.42 436.2 1161.42 436.2C1165.42 436.2 1168.69 437.567 1171.22 440.3C1173.82 442.967 1175.12 446.567 1175.12 451.1C1175.12 455.633 1173.82 459.267 1171.22 462ZM302.8 543.2H325.2V530H264.5V543.2H286.8V600H302.8V543.2ZM380.703 577.5C380.903 574.9 381.003 573.5 381.003 573.3C381.003 567.7 379.77 562.8 377.303 558.6C374.903 554.333 371.57 551.067 367.303 548.8C363.036 546.533 358.27 545.4 353.003 545.4C347.603 545.4 342.703 546.6 338.303 549C333.97 551.333 330.536 554.633 328.003 558.9C325.536 563.1 324.303 567.833 324.303 573.1C324.303 578.433 325.57 583.2 328.103 587.4C330.636 591.6 334.236 594.9 338.903 597.3C343.57 599.633 348.936 600.8 355.003 600.8C364.736 600.8 372.136 597.9 377.203 592.1L368.903 583.1C367.036 584.9 365.003 586.233 362.803 587.1C360.67 587.9 358.203 588.3 355.403 588.3C351.336 588.3 347.936 587.333 345.203 585.4C342.47 583.467 340.736 580.833 340.003 577.5H380.703ZM344.203 560.2C346.603 558.2 349.57 557.2 353.103 557.2C356.57 557.2 359.503 558.233 361.903 560.3C364.303 562.3 365.77 565 366.303 568.4H339.803C340.336 564.933 341.803 562.2 344.203 560.2ZM438.261 548.9C434.194 546.567 429.661 545.4 424.661 545.4C417.261 545.4 411.628 547.733 407.761 552.4V546.2H392.861V619.4H408.461V594.3C412.394 598.633 417.794 600.8 424.661 600.8C429.661 600.8 434.194 599.667 438.261 597.4C442.394 595.067 445.628 591.833 447.961 587.7C450.294 583.5 451.461 578.633 451.461 573.1C451.461 567.567 450.294 562.733 447.961 558.6C445.628 554.4 442.394 551.167 438.261 548.9ZM431.761 584C429.228 586.667 425.961 588 421.961 588C417.961 588 414.661 586.667 412.061 584C409.528 581.267 408.261 577.633 408.261 573.1C408.261 568.567 409.528 564.967 412.061 562.3C414.661 559.567 417.961 558.2 421.961 558.2C425.961 558.2 429.228 559.567 431.761 562.3C434.361 564.967 435.661 568.567 435.661 573.1C435.661 577.633 434.361 581.267 431.761 584ZM507.695 548.9C503.628 546.567 499.095 545.4 494.095 545.4C486.695 545.4 481.061 547.733 477.195 552.4V546.2H462.295V619.4H477.895V594.3C481.828 598.633 487.228 600.8 494.095 600.8C499.095 600.8 503.628 599.667 507.695 597.4C511.828 595.067 515.061 591.833 517.395 587.7C519.728 583.5 520.895 578.633 520.895 573.1C520.895 567.567 519.728 562.733 517.395 558.6C515.061 554.4 511.828 551.167 507.695 548.9ZM501.195 584C498.661 586.667 495.395 588 491.395 588C487.395 588 484.095 586.667 481.495 584C478.961 581.267 477.695 577.633 477.695 573.1C477.695 568.567 478.961 564.967 481.495 562.3C484.095 559.567 487.395 558.2 491.395 558.2C495.395 558.2 498.661 559.567 501.195 562.3C503.795 564.967 505.095 568.567 505.095 573.1C505.095 577.633 503.795 581.267 501.195 584ZM547.328 546.2H531.828V600H546.228L572.328 568V600H587.828V546.2H573.528L547.328 578.2V546.2ZM629.824 559H648.024V546.2H596.124V559H614.324V600H629.824V559ZM663.994 597.3C668.527 599.633 673.627 600.8 679.294 600.8C684.96 600.8 690.027 599.633 694.494 597.3C698.96 594.9 702.46 591.6 704.994 587.4C707.527 583.2 708.794 578.433 708.794 573.1C708.794 567.767 707.527 563 704.994 558.8C702.46 554.6 698.96 551.333 694.494 549C690.027 546.6 684.96 545.4 679.294 545.4C673.627 545.4 668.527 546.6 663.994 549C659.527 551.333 656.027 554.6 653.494 558.8C650.96 563 649.694 567.767 649.694 573.1C649.694 578.433 650.96 583.2 653.494 587.4C656.027 591.6 659.527 594.9 663.994 597.3ZM689.094 584C686.56 586.667 683.294 588 679.294 588C675.294 588 671.994 586.667 669.394 584C666.794 581.267 665.494 577.633 665.494 573.1C665.494 568.567 666.794 564.967 669.394 562.3C671.994 559.567 675.294 558.2 679.294 558.2C683.294 558.2 686.56 559.567 689.094 562.3C691.694 564.967 692.994 568.567 692.994 573.1C692.994 577.633 691.694 581.267 689.094 584ZM764.823 548.9C760.757 546.567 756.223 545.4 751.223 545.4C743.823 545.4 738.19 547.733 734.323 552.4V546.2H719.423V619.4H735.023V594.3C738.957 598.633 744.357 600.8 751.223 600.8C756.223 600.8 760.757 599.667 764.823 597.4C768.957 595.067 772.19 591.833 774.523 587.7C776.857 583.5 778.023 578.633 778.023 573.1C778.023 567.567 776.857 562.733 774.523 558.6C772.19 554.4 768.957 551.167 764.823 548.9ZM758.323 584C755.79 586.667 752.523 588 748.523 588C744.523 588 741.223 586.667 738.623 584C736.09 581.267 734.823 577.633 734.823 573.1C734.823 568.567 736.09 564.967 738.623 562.3C741.223 559.567 744.523 558.2 748.523 558.2C752.523 558.2 755.79 559.567 758.323 562.3C760.923 564.967 762.223 568.567 762.223 573.1C762.223 577.633 760.923 581.267 758.323 584ZM804.457 546.2H788.957V600H803.357L829.457 568V600H844.957V546.2H830.657L804.457 578.2V546.2ZM875.453 546.2H859.953V600H874.353L900.453 568V600H915.953V546.2H901.653L875.453 578.2V546.2ZM869.253 524.9C869.32 535.233 875.22 540.4 886.953 540.4C898.753 540.4 904.686 535.233 904.753 524.9H894.353C894.353 527.233 893.686 529.067 892.353 530.4C891.086 531.667 889.253 532.3 886.853 532.3C884.453 532.3 882.62 531.667 881.353 530.4C880.153 529.067 879.52 527.233 879.453 524.9H869.253Z" fill="#757575"/>
</g>
<defs>
<filter id="filter0_d" x="0" y="0" width="1474" height="776" filterUnits="userSpaceOnUse" color-interpolation-filters="sRGB">
<feFlood flood-opacity="0" result="BackgroundImageFix"/>
<feColorMatrix in="SourceAlpha" type="matrix" values="0 0 0 0 0 0 0 0 0 0 0 0 0 0 0 0 0 0 127 0"/>
<feOffset dy="1"/>
<feGaussianBlur stdDeviation="1.5"/>
<feColorMatrix type="matrix" values="0 0 0 0 0 0 0 0 0 0 0 0 0 0 0 0 0 0 0.15 0"/>
<feBlend mode="normal" in2="BackgroundImageFix" result="effect1_dropShadow"/>
<feBlend mode="normal" in="SourceGraphic" in2="effect1_dropShadow" result="shape"/>
</filter>
</defs>
</svg>
