<svg width="548" height="99" viewBox="0 0 548 99" fill="none" xmlns="http://www.w3.org/2000/svg">
<path d="M49.3825 7.99939C50.2006 5.4816 53.7626 5.4816 54.5807 7.99939L64.2528 37.7671H95.5524C98.1998 37.7671 99.3005 41.1548 97.1588 42.7108L71.8368 61.1083L81.509 90.876C82.327 93.3938 79.4453 95.4875 77.3036 93.9314L51.9816 75.534L26.6597 93.9314C24.5179 95.4875 21.6362 93.3938 22.4543 90.876L32.1264 61.1083L6.80448 42.7108C4.66272 41.1548 5.76344 37.7671 8.4108 37.7671H39.7104L49.3825 7.99939Z" fill="#FFD363"/>
<path d="M271.309 7.99914C272.127 5.48135 275.689 5.48136 276.507 7.99915L286.179 37.7669H317.479C320.126 37.7669 321.227 41.1545 319.085 42.7106L293.763 61.1081L303.435 90.8758C304.254 93.3936 301.372 95.4873 299.23 93.9312L273.908 75.5337L248.586 93.9312C246.444 95.4873 243.563 93.3936 244.381 90.8758L254.053 61.1081L228.731 42.7106C226.589 41.1545 227.69 37.7669 230.337 37.7669H261.637L271.309 7.99914Z" fill="#FFD363"/>
<path d="M160.346 7.99914C161.164 5.48135 164.726 5.48136 165.544 7.99915L175.216 37.7669H206.516C209.163 37.7669 210.264 41.1545 208.122 42.7106L182.8 61.1081L192.472 90.8758C193.29 93.3936 190.408 95.4873 188.267 93.9312L162.945 75.5337L137.623 93.9312C135.481 95.4873 132.599 93.3936 133.417 90.8758L143.09 61.1081L117.768 42.7106C115.626 41.1545 116.727 37.7669 119.374 37.7669H150.674L160.346 7.99914Z" fill="#FFD363"/>
<path d="M382.272 7.99914C383.09 5.48135 386.652 5.48136 387.47 7.99915L397.142 37.7669H428.442C431.089 37.7669 432.19 41.1545 430.048 42.7106L404.726 61.1081L414.399 90.8758C415.217 93.3936 412.335 95.4873 410.193 93.9312L384.871 75.5337L359.549 93.9312C357.408 95.4873 354.526 93.3936 355.344 90.8758L365.016 61.1081L339.694 42.7106C337.552 41.1545 338.653 37.7669 341.3 37.7669H372.6L382.272 7.99914Z" fill="#FFD363"/>
<path d="M493.236 7.99914C494.054 5.48135 497.616 5.48136 498.434 7.99915L508.106 37.7669H539.405C542.053 37.7669 543.154 41.1545 541.012 42.7106L515.69 61.1081L525.362 90.8758C526.18 93.3936 523.298 95.4873 521.157 93.9312L495.835 75.5337L470.513 93.9312C468.371 95.4873 465.489 93.3936 466.307 90.8758L475.979 61.1081L450.658 42.7106C448.516 41.1545 449.616 37.7669 452.264 37.7669H483.563L493.236 7.99914Z" fill="#FFD363"/>
</svg>
