<svg width="157" height="157" viewBox="0 0 157 157" fill="none" xmlns="http://www.w3.org/2000/svg">
<path fill-rule="evenodd" clip-rule="evenodd" d="M78.1429 0C34.9858 0 0 34.9858 0 78.1429C0 121.3 34.9858 156.286 78.1429 156.286C121.3 156.286 156.286 121.3 156.286 78.1429C156.286 34.9858 121.3 0 78.1429 0ZM122.408 58.4062V55.4418C126.899 52.2976 130.672 48.3899 133.727 43.7186C129.594 45.5153 125.238 46.6831 120.656 47.2221C123.082 45.7848 125.148 43.9881 126.855 41.8321C128.561 39.6761 129.864 37.2956 130.762 34.6904C126.181 37.2956 121.33 39.1371 116.209 40.2151C114.143 37.8795 111.673 36.0828 108.798 34.8252C105.924 33.5675 102.824 32.9387 99.5005 32.9387C96.536 32.8488 93.6165 33.4328 90.7418 34.6904C87.8672 35.9481 85.4417 37.61 83.4654 39.6761C81.4891 41.7423 79.8721 44.1678 78.6144 46.9526C77.3567 49.7374 76.7279 52.7019 76.7279 55.846C76.7279 56.6545 76.7728 57.5079 76.8627 58.4062C76.9525 59.3046 77.0872 60.158 77.2669 60.9665C67.7446 60.5173 58.941 58.1817 50.8561 53.9595C42.7711 49.7374 35.8989 44.1228 30.2395 37.1159C29.2513 38.8227 28.4877 40.6643 27.9487 42.6406C27.4097 44.6169 27.1402 46.6382 27.1402 48.7043C27.2301 52.657 28.1733 56.2952 29.97 59.619C31.7666 62.9428 34.237 65.6378 37.3812 67.7039C33.698 67.6141 30.2395 66.6259 27.0055 64.7395V65.0089C27.0953 67.7938 27.5894 70.4438 28.4877 72.9592C29.3861 75.4745 30.6437 77.7203 32.2607 79.6966C33.8777 81.6729 35.8091 83.3348 38.0549 84.6823C40.3007 86.0298 42.7262 86.9731 45.3314 87.5121C43.2652 87.9612 41.244 88.1858 39.2677 88.1858C37.8303 88.1858 36.393 88.051 34.9557 87.7815C36.4828 92.363 39.1778 96.136 43.0406 99.1005C46.9034 102.065 51.3502 103.592 56.3808 103.682C52.518 106.646 48.1611 109.027 43.3101 110.824C38.4592 112.62 33.3387 113.519 27.9487 113.519C26.0623 113.519 24.2656 113.384 22.5588 113.114C27.7691 116.348 33.2938 118.864 39.1329 120.66C44.972 122.457 51.1256 123.355 57.5935 123.355C64.5107 123.355 70.9786 122.457 76.9974 120.66C83.0162 118.864 88.3613 116.393 93.0326 113.249C97.7039 110.105 101.926 106.422 105.699 102.2C109.472 97.9776 112.571 93.441 114.997 88.59C117.422 83.7391 119.264 78.7534 120.521 73.6329C121.779 68.5124 122.408 63.4369 122.408 58.4062Z" fill="white"/>
</svg>
